Patient4_TMGait_0pt7_01_right_44_GRF.mot
version=1
nRows=32
nColumns=19
inDegrees=no
endheader
time	F1x	F1y	F1z	M1x	M1y	M1z	F2x	F2y	F2z	M2x	M2y	M2z	EC1x	EC1y	EC1z	EC2x	EC2y	EC2z
50.43	-17.3761	762.6372	71.0387	-252.0637	-74.7962	827.2266	-5.4767	20.6763	22.3065	-0.95493	-13.4401	17.8514	-0.0592	0.0182	-0.0073	-0.0462	0.0165	0.9585
50.4416	-16.405	761.1001	69.6444	-249.842	-73.6121	821.6808	-3.9237	14.9856	15.3199	-0.36149	-9.1693	13.2913	-0.0592	0.0182	-0.0073	-0.0462	0.0165	0.9585
50.4533	-14.9674	758.0889	68.5059	-247.0958	-72.3165	814.176	-2.6113	10.1869	9.3235	0.17767	-5.483	9.4439	-0.0592	0.0182	-0.0073	-0.0462	0.0165	0.9585
50.4649	-13.0586	753.7036	67.6326	-243.9752	-70.901	804.9337	-1.6198	6.5681	4.7033	0.62044	-2.6269	6.5455	-0.0592	0.0182	-0.0073	-0.0462	0.0165	0.9585
50.4766	-10.7245	748.1429	67.0181	-240.6288	-69.3961	794.2163	-0.95461	4.1173	1.478	0.95716	-0.61879	4.598	-0.0592	0.0182	-0.0073	-0.0462	0.0165	0.9585
50.4882	-8.0484	741.5674	66.603	-237.1581	-67.8171	782.2489	-0.55939	2.6413	-0.55167	1.1907	0.66307	3.4315	-0.0592	0.0182	-0.0073	-0.0462	0.0165	0.9585
50.4999	-5.107	734.1194	66.3355	-233.6277	-66.1887	769.2189	-0.38701	1.8755	-1.6564	1.3285	1.3873	2.8099	-0.0592	0.0182	-0.0073	-0.0462	0.0165	0.9585
50.5115	-1.9736	726.0287	66.083	-230.1115	-64.4535	755.4024	-0.36191	1.528	-2.1273	1.3686	1.7339	2.4649	-0.0592	0.0182	-0.0073	-0.0462	0.0165	0.9585
50.5231	1.3374	717.6939	65.7403	-226.7234	-62.5502	741.2344	-0.4344	1.3371	-2.2074	1.302	1.8563	2.1705	-0.0592	0.0182	-0.0073	-0.0462	0.0165	0.9585
50.5348	4.8282	709.7026	65.2029	-223.627	-60.4047	727.3433	-0.55292	1.0562	-2.0943	1.1038	1.8764	1.6943	-0.0592	0.0182	-0.0073	-0.0462	0.0165	0.9585
50.5464	8.5404	702.6909	64.4802	-220.9982	-58.0222	714.3775	-0.68829	0.49167	-1.925	0.74447	1.8779	0.86123	-0.0592	0.0182	-0.0073	-0.0462	0.0165	0.9585
50.5581	12.5461	697.3388	63.6241	-219.0222	-55.4303	703.0171	-0.80986	-0.52987	-1.7707	0.18677	1.8906	-0.51228	-0.0592	0.0182	-0.0073	-0.0462	0.0165	0.9585
50.5697	16.9395	694.2452	62.7776	-217.8601	-52.7281	693.8479	-0.89952	-2.1074	-1.6611	-0.59273	1.9096	-2.5302	-0.0592	0.0182	-0.0073	-0.0462	0.0165	0.9585
50.5814	21.778	693.9429	62.0646	-217.6545	-50.0099	687.3863	-0.897	-4.2527	-1.5828	-1.5885	1.8831	-5.2048	-0.0592	0.0182	-0.0073	-0.0462	0.0165	0.9585
50.593	27.0782	696.7244	61.6353	-218.4752	-47.4061	683.8877	-0.74698	-6.805	-1.4909	-2.7307	1.7357	-8.3372	-0.0592	0.0182	-0.0073	-0.0462	0.0165	0.9585
50.6046	32.7618	702.491	61.5731	-220.2739	-45.0127	683.2491	-0.35554	-9.3798	-1.3059	-3.8539	1.347	-11.4782	-0.0592	0.0182	-0.0073	-0.0462	0.0165	0.9585
50.6163	38.7101	710.6322	61.9395	-222.845	-42.9163	684.8718	0.352	-11.2596	-0.92653	-4.6524	0.57315	-13.7648	-0.0592	0.0182	-0.0073	-0.0462	0.0165	0.9585
50.6279	44.7421	720.1173	62.7202	-225.8546	-41.1595	687.7779	1.4689	-11.3198	-0.23494	-4.6431	-0.75205	-13.8515	-0.0592	0.0182	-0.0073	-0.0462	0.0165	0.9585
50.6396	50.6828	729.6553	63.8444	-228.8969	-39.7347	690.7541	3.0236	-7.9483	0.88651	-3.1344	-2.7697	-9.7898	-0.0592	0.0182	-0.0073	-0.0462	0.0165	0.9585
50.6512	56.3566	737.9255	65.1542	-231.5599	-38.5649	692.6089	4.9811	0.9204	2.5215	0.76334	-5.5439	0.90429	-0.0592	0.0182	-0.0073	-0.0462	0.0165	0.9585
50.6629	61.6269	743.6257	66.4136	-233.4398	-37.4943	692.1787	7.1411	17.7004	4.6841	8.0827	-8.9873	21.1379	-0.0592	0.0182	-0.0073	-0.0462	0.0165	0.9585
50.6745	66.3752	745.5579	67.3312	-234.1652	-36.3184	688.4502	9.1157	44.7819	7.2554	19.8415	-12.7641	53.7884	-0.0592	0.0182	-0.0073	-0.0462	0.0165	0.9585
50.6861	70.5068	742.5898	67.5667	-233.3878	-34.7835	680.4909	10.2134	83.9229	9.9082	36.7726	-16.155	100.9876	-0.0592	0.0182	-0.0073	-0.0462	0.0165	0.9585
50.6978	73.8879	733.6476	66.77	-230.773	-32.645	667.4656	9.4074	135.2958	12.0388	58.9108	-17.975	162.9407	-0.0592	0.0182	-0.0073	-0.0462	0.0165	0.9585
50.7094	76.3486	717.6393	64.6225	-225.9802	-29.7036	648.5402	5.4035	196.2795	12.8989	85.0662	-16.7564	236.4942	-0.0592	0.0182	-0.0073	-0.0462	0.0165	0.9585
50.7211	77.6423	693.4383	60.9019	-218.6527	-25.8686	622.8621	-2.4002	260.4399	11.3959	112.4124	-11.0141	313.8623	-0.0592	0.0182	-0.0073	-0.0462	0.0165	0.9585
50.7327	77.5387	660.0832	55.5908	-208.4763	-21.2244	589.6918	-12.3425	319.4285	6.6793	137.3594	-0.66848	384.858	-0.0592	0.0182	-0.0073	-0.0462	0.0165	0.9585
50.7444	75.8456	617.2618	48.8985	-195.3246	-16.0217	548.8408	-22.035	367.9609	-0.41201	157.6867	12.1896	442.8076	-0.0592	0.0182	-0.0073	-0.0462	0.0165	0.9585
50.756	72.4961	565.5773	41.2989	-179.3419	-10.6801	500.8828	-30.0313	405.9727	-8.8095	173.4095	25.6609	487.3769	-0.0592	0.0182	-0.0073	-0.0462	0.0165	0.9585
50.7676	67.5727	506.5341	33.4088	-160.9533	-5.675	447.1302	-35.7876	436.8933	-17.1599	186.0637	37.9561	522.6108	-0.0592	0.0182	-0.0073	-0.0462	0.0165	0.9585
50.7793	61.2185	442.3861	25.7846	-140.8358	-1.4034	389.5311	-39.2449	464.8419	-24.2797	197.4911	47.7331	553.4748	-0.0592	0.0182	-0.0073	-0.0462	0.0165	0.9585
50.7909	53.6182	375.8809	18.875	-119.8443	1.8404	330.4198	-40.7834	493.0051	-29.5792	209.1066	54.4716	583.9255	-0.0592	0.0182	-0.0073	-0.0462	0.0165	0.9585
